# xmcd
#
# Track frame offsets:
# 150
# 11887
# 23746
# 35658
# 46648
# 59308
# 68137
# 77437
# 100322
# 109042
# 119168
#
# Disc length: 1753 seconds
#
#
# Revision: 0
# Processed by: cddbd v1.5.1PL0 Copyright (c) Steve Scherf et al.
# Submitted via: FreeRIP 2.92 
#
DISCID=8b06d70b
DTITLE=The Platters - Versiones Originales
DYEAR=1998
DGENRE=Soul
TTITLE0=How Beautiful Our Love
TTITLE1=With This Ring
TTITLE2=I Love You 1000 Times
TTITLE3=Red Sails In The Sunset
TTITLE4=Washed Ashore
TTITLE5=Sweet-Sweet Lovin'
TTITLE6=Doesn't It Ring A Bell
TTITLE7=Unchained Melody
TTITLE8=Devri
TTITLE9=One In A Million
TTITLE10=Pledging My Love
EXTD=CD2
EXTT0=
EXTT1=
EXTT2=
EXTT3=
EXTT4=
EXTT5=
EXTT6=
EXTT7=
EXTT8=
EXTT9=
EXTT10=
PLAYORDER=
